<svg height='100px' width='100px'  fill="#009faf" xmlns="http://www.w3.org/2000/svg" xmlns:xlink="http://www.w3.org/1999/xlink" xml:space="preserve" style="shape-rendering:geometricPrecision;text-rendering:geometricPrecision;image-rendering:optimizeQuality;" viewBox="0 0 6.82666 6.82666" x="0px" y="0px" fill-rule="evenodd" clip-rule="evenodd"><defs><style type="text/css">
   
    .fil0 {fill:#009faf}
    .fil1 {fill:#009faf;fill-rule:nonzero}
   
  </style></defs><g><path class="fil0" d="M3.41333 -3.93701e-006c1.88513,0 3.41333,1.5282 3.41333,3.41333 0,1.88513 -1.5282,3.41333 -3.41333,3.41333 -1.88513,0 -3.41333,-1.5282 -3.41333,-3.41333 0,-1.88514 1.5282,-3.41333 3.41333,-3.41333zm0 0.166669c1.79309,0 3.24667,1.45357 3.24667,3.24667 0,1.79309 -1.45358,3.24667 -3.24667,3.24667 -1.79309,0 -3.24667,-1.45358 -3.24667,-3.24667 0,-1.79309 1.45358,-3.24667 3.24667,-3.24667z"></path><g><path class="fil1" d="M5.21183 2.22513l-2.74847 0c-0.0851654,0 -0.162646,0.0348937 -0.218854,0.0911024 -0.0562126,0.0562126 -0.0911063,0.133693 -0.0911063,0.218858l0 1.68954c0,0.0851614 0.0348937,0.162646 0.0911063,0.218854 0.0562087,0.0562126 0.133689,0.0911024 0.218854,0.0911024l1.92155 0c0.0196969,0 0.0375079,0.00805118 0.0503386,0.0210354l0.53922 0.53922 0 -0.48948c0,-0.0390866 0.031689,-0.0707756 0.0707756,-0.0707756l0.166583 0c0.0851654,0 0.162646,-0.0348898 0.218854,-0.0911024 0.0562126,-0.0562087 0.0911063,-0.133693 0.0911063,-0.218854l0 -1.68954c0,-0.0851654 -0.0348937,-0.162646 -0.0911063,-0.218858 -0.0562087,-0.0562087 -0.133689,-0.0911024 -0.218854,-0.0911024zm-2.74847 -0.141547l2.74847 0c0.12424,0 0.237138,0.0507756 0.318933,0.132571 0.0817992,0.0817992 0.132571,0.194697 0.132571,0.318937l0 1.68954c0,0.124236 -0.0507717,0.237138 -0.132571,0.318933 -0.0817953,0.0817992 -0.194693,0.132571 -0.318933,0.132571l-0.095811 0 0 0.589563 -3.93701e-006 0c0,0.0181102 -0.00690551,0.0362244 -0.0207244,0.0500394 -0.0276378,0.0276378 -0.0724488,0.0276378 -0.100087,0l3.93701e-006 0 -0.639598 -0.639602 -1.89225 0c-0.12424,0 -0.237138,-0.0507717 -0.318933,-0.132571 -0.0817992,-0.0817953 -0.132571,-0.194697 -0.132571,-0.318933l0 -1.68954c0,-0.12424 0.0507717,-0.237138 0.132571,-0.318937 0.0817953,-0.0817953 0.194693,-0.132571 0.318933,-0.132571z"></path><path class="fil1" d="M1.50494 1.49019l1.95509 0c0.0940197,0 0.179441,0.0384134 0.241319,0.100287 0.061878,0.061878 0.100291,0.147295 0.100291,0.241311l0 0.322575c0,0.0390827 -0.031689,0.0707717 -0.0707756,0.0707717l-1.26751 0c-0.0851654,0 -0.162642,0.0348937 -0.218854,0.0911024 -0.0562087,0.0562126 -0.0911024,0.133693 -0.0911024,0.218858l0 0.779894c0,0.0196929 -0.00804724,0.0375079 -0.0210315,0.0503386l-0.458898 0.458894 3.93701e-006 3.93701e-006c-0.0276378,0.0276378 -0.0724488,0.0276378 -0.100087,0 -0.0138228,-0.0138189 -0.0207283,-0.0319331 -0.0207283,-0.0500433l-3.93701e-006 0 0 -0.398945 -0.0477205 0c-0.0940197,0 -0.179441,-0.0384134 -0.241315,-0.100291 -0.061878,-0.061878 -0.100291,-0.147303 -0.100291,-0.241319l0 -1.20184c0,-0.0940157 0.0384134,-0.179429 0.100291,-0.241311 0.061878,-0.061878 0.147303,-0.100287 0.241315,-0.100287zm1.95509 0.141547l-1.95509 0c-0.054937,0 -0.104945,0.0225315 -0.141236,0.0588189 -0.0362913,0.0362913 -0.0588228,0.0862953 -0.0588228,0.141232l0 1.20184c0,0.054937 0.0225315,0.104945 0.0588228,0.14124 0.0362913,0.0362913 0.0862992,0.0588228 0.141236,0.0588228l0.118496 0c0.0390827,0 0.0707717,0.031685 0.0707717,0.0707717l0 0.298866 0.31765 -0.317646 0 -0.750587c0,-0.12424 0.0507756,-0.237138 0.132571,-0.318937 0.0817992,-0.0817953 0.194693,-0.132571 0.318933,-0.132571l1.19674 0 0 -0.251799c0,-0.054937 -0.0225315,-0.104941 -0.0588228,-0.141232 -0.0362913,-0.0362874 -0.0862953,-0.0588189 -0.14124,-0.0588189z"></path></g></g></svg>