<svg height='100px' width='100px'  fill="#009faf" xmlns="http://www.w3.org/2000/svg" xmlns:xlink="http://www.w3.org/1999/xlink" xml:space="preserve" style="shape-rendering:geometricPrecision;text-rendering:geometricPrecision;image-rendering:optimizeQuality;" viewBox="0 0 6.82666 6.82666" x="0px" y="0px" fill-rule="evenodd" clip-rule="evenodd"><defs><style type="text/css">
   
    .fil1 {fill:#009faf}
    .fil0 {fill:#009faf;fill-rule:nonzero}
   
  </style></defs><g><g><path class="fil0" d="M2.78547 1.71443l2.54362 0c0.0461417,0 0.0880472,0.0188386 0.11839,0.049185 0.0303425,0.0303386 0.0491811,0.0722441 0.0491811,0.118386l0 1.90638c0,0.0461417 -0.0188386,0.0880472 -0.0491811,0.118386 -0.0303425,0.0303465 -0.072248,0.049185 -0.11839,0.049185l-0.0335591 0 0 0.530791c0,0.0293189 -0.0237717,0.0530906 -0.0530906,0.0530906 -0.0181378,0 -0.0341535,-0.00910236 -0.0437283,-0.0229843l-0.47265 -0.560898 -0.464217 0 0 -1.50155c0,-0.0586417 -0.0232913,-0.114488 -0.0647283,-0.155929 -0.0414409,-0.041437 -0.0972874,-0.0647323 -0.155929,-0.0647323l-1.42329 0 0 -0.35174c0,-0.0461417 0.0188386,-0.0880472 0.049185,-0.118386 0.0303386,-0.0303465 0.0722441,-0.049185 0.118386,-0.049185z"></path><path class="fil0" d="M1.49757 2.28683l2.54362 0c0.0461417,0 0.0880472,0.0188386 0.11839,0.0491811 0.0303425,0.0303425 0.0491811,0.072248 0.0491811,0.11839l0 1.90638c0,0.0461417 -0.0188386,0.0880472 -0.0491811,0.118386 -0.0303425,0.0303465 -0.072248,0.049185 -0.11839,0.049185l-1.94059 0 -0.472646 0.560898c-0.00957874,0.0138819 -0.0255945,0.0229843 -0.0437323,0.0229843 -0.0293189,0 -0.0530906,-0.0237717 -0.0530906,-0.0530906l0 -0.530791 -0.0335591 0c-0.0461417,0 -0.0880472,-0.0188386 -0.11839,-0.049185 -0.0303425,-0.0303386 -0.0491811,-0.0722441 -0.0491811,-0.118386l0 -1.90638c0,-0.0461417 0.0188386,-0.0880472 0.0491811,-0.11839 0.0303425,-0.0303425 0.072248,-0.0491811 0.11839,-0.0491811zm1.14883 0.787209c-0.0293189,0 -0.0530906,0.0237717 -0.0530906,0.0530906 0,0.0293189 0.0237717,0.0530906 0.0530906,0.0530906l0.245953 0c0.0293228,0 0.0530906,-0.0237717 0.0530906,-0.0530906 0,-0.0293189 -0.0237677,-0.0530906 -0.0530906,-0.0530906l-0.245953 0zm-0.771409 0c-0.0293189,0 -0.0530906,0.0237717 -0.0530906,0.0530906 0,0.0293189 0.0237717,0.0530906 0.0530906,0.0530906l0.245957 0c0.0293228,0 0.0530906,-0.0237717 0.0530906,-0.0530906 0,-0.0293189 -0.0237677,-0.0530906 -0.0530906,-0.0530906l-0.245957 0zm1.54281 0c-0.0293189,0 -0.0530906,0.0237717 -0.0530906,0.0530906 0,0.0293189 0.0237717,0.0530906 0.0530906,0.0530906l0.245953 0c0.0293189,0 0.0530906,-0.0237717 0.0530906,-0.0530906 0,-0.0293189 -0.0237717,-0.0530906 -0.0530906,-0.0530906l-0.245953 0z"></path></g><path class="fil1" d="M3.41333 -3.93701e-006c1.88513,0 3.41333,1.5282 3.41333,3.41333 0,1.88513 -1.5282,3.41333 -3.41333,3.41333 -1.88513,0 -3.41333,-1.5282 -3.41333,-3.41333 0,-1.88514 1.5282,-3.41333 3.41333,-3.41333zm0 0.341437c1.69656,0 3.0719,1.37533 3.0719,3.0719 0,1.69656 -1.37533,3.0719 -3.0719,3.0719 -1.69656,0 -3.0719,-1.37533 -3.0719,-3.0719 0,-1.69657 1.37533,-3.0719 3.0719,-3.0719z"></path></g></svg>